<?xml version="1.0" encoding="utf-8"?>
<!-- Generator: Adobe Illustrator 17.0.0, SVG Export Plug-In . SVG Version: 6.00 Build 0)  -->
<!DOCTYPE svg PUBLIC "-//W3C//DTD SVG 1.1//EN" "http://www.w3.org/Graphics/SVG/1.1/DTD/svg11.dtd">
<svg version="1.1" id="Layer_1" xmlns="http://www.w3.org/2000/svg" xmlns:xlink="http://www.w3.org/1999/xlink" x="0px" y="0px"
	 width="126px" height="1080px" viewBox="478.8 0 126 1080" enable-background="new 478.8 0 126 1080" xml:space="preserve">
<rect x="480.6" y="631.8" fill="#FFFFFF" width="122.4" height="23.4"/>
<rect x="480.6" y="141.3" fill="#FFFFFF" width="122.4" height="23.4"/>
<polygon fill="#FFFFFF" points="480.6,1080 488.7,1080 488.7,1044.9 603,1044.9 603,1021.5 488.7,1021.5 488.7,985.5 480.6,985.5 
	"/>
<polygon fill="#FFFFFF" points="537.3,868.5 537.3,931.5 480.6,931.5 480.6,954.9 603,954.9 603,931.5 546.3,931.5 546.3,868.5 
	603,868.5 603,846 480.6,846 480.6,868.5 "/>
<polygon fill="#FFFFFF" points="546.3,783.9 546.3,737.1 537.3,737.1 537.3,783.9 488.7,783.9 488.7,721.8 480.6,721.8 480.6,806.4 
	603,806.4 603,721.8 594.9,721.8 594.9,783.9 "/>
<path fill="#FFFFFF" d="M478.8,402.3c0,37.8,27,63,63,63s63-25.2,63-63s-27-63-63-63S478.8,364.5,478.8,402.3 M593.1,390.6
	c0.9,1.8,1.8,6.3,1.8,11.7s-1.8,9.9-1.8,11.7c-4.5,12.6-18.9,26.1-51.3,26.1s-45.9-13.5-51.3-27c-0.9-1.8-1.8-6.3-1.8-11.7
	s1.8-9.9,1.8-11.7c4.5-12.6,18.9-26.1,51.3-26.1S587.7,378,593.1,390.6"/>
<path fill="#FFFFFF" d="M587.7,488.7c10.8,10.8,17.1,27,17.1,45c0,37.8-20.7,63.9-63,63.9c-36,0-63-26.1-63-63.9
	c0-18,6.3-33.3,16.2-44.1l14.4,7.2c-12.6,7.2-20.7,19.8-20.7,34.2c0,25.2,22.5,42.3,53.1,42.3c36,0,53.1-19.8,53.1-42.3
	c0-16.2-6.3-29.7-14.4-38.7L587.7,488.7z"/>
<path fill="#FFFFFF" d="M587.7,0c10.8,10.8,17.1,27,17.1,45c0,37.8-20.7,63.9-63,63.9c-36,0-63-26.1-63-63.9
	c0-18,6.3-33.3,16.2-44.1l14.4,7.2c-12.6,7.2-20.7,19.8-20.7,34.2c0,25.2,22.5,42.3,53.1,42.3c36,0,53.1-19.8,53.1-42.3
	c0-16.2-6.3-29.7-14.4-38.7L587.7,0z"/>
<polygon fill="#FFFFFF" points="480.6,206.1 603,206.1 603,220.5 509.4,301.5 509.4,301.5 603,301.5 603,311.4 480.6,311.4 
	480.6,294.3 574.2,216 574.2,215.1 480.6,215.1 "/>
</svg>
