<?xml version="1.0" encoding="utf-8"?>
<!-- Generator: Adobe Illustrator 17.0.0, SVG Export Plug-In . SVG Version: 6.00 Build 0)  -->
<!DOCTYPE svg PUBLIC "-//W3C//DTD SVG 1.1//EN" "http://www.w3.org/Graphics/SVG/1.1/DTD/svg11.dtd">
<svg version="1.1" id="Layer_1" xmlns="http://www.w3.org/2000/svg" xmlns:xlink="http://www.w3.org/1999/xlink" x="0px" y="0px"
	 width="132.94px" height="612.004px" viewBox="239.532 89.998 132.94 612.004"
	 enable-background="new 239.532 89.998 132.94 612.004" xml:space="preserve">
<g>
	<path fill="#19171C" d="M281.682,657.738c13.315,0,22.56,9.411,22.56,20.859c0,6.106-2.63,11.112-7.039,14.075l5.932,0.513v8.817
		h-63.604v-9.924h25.357c-3.479-2.963-5.512-7.545-5.512-13.141C259.376,667.149,268.533,657.738,281.682,657.738z M281.763,667.913
		c-7.803,0-13.145,5.003-13.145,12.466c0,7.46,5.257,12.551,13.145,12.551c8.057,0,13.145-5.172,13.145-12.551
		C294.908,672.915,289.655,667.913,281.763,667.913z"/>
	<path fill="#19171C" d="M277.27,595.031h25.866v8.733l-6.106,0.594c4.748,3.394,7.209,9.415,7.209,15.012
		c0,7.63-4.667,14.927-13.484,14.927c-9.755,0-13.569-8.906-13.569-17.218c0-3.645,0.509-8.142,1.693-12.212h-1.358
		c-6.191,0-9.242,3.394-9.242,10.009c0,4.328,1.358,9.072,4.239,12.887l-7.209,3.9c-3.39-4.409-5.936-10.939-5.936-18.572
		C259.376,601.387,265.313,595.031,277.27,595.031z M285.751,604.863c-1.018,3.479-1.527,7.209-1.527,10.433
		c0,5.003,1.693,8.906,6.017,8.906c3.649,0,5.6-2.881,5.6-7.209C295.845,611.057,291.942,604.863,285.751,604.863z"/>
	<path fill="#19171C" d="M298.557,570.309l-7.463-3.564c2.8-3.39,4.578-10.26,4.578-15.945c0-4.15-1.015-8.729-4.918-8.729
		c-3.14,0-3.9,3.896-4.922,9.496c-1.863,10.518-4.069,16.875-12.551,16.875c-10.769,0-13.909-9.924-13.909-18.483
		c0-6.449,1.863-12.47,4.748-16.709l7.548,3.645c-2.287,3.224-3.73,7.976-3.73,13.149c0,5.512,1.693,8.224,4.833,8.224
		c2.372,0,3.136-1.609,4.239-7.803c1.952-10.171,3.734-18.402,13.056-18.402c9.161,0,14.248,7.976,14.248,19.17
		C304.323,557.591,302.117,565.815,298.557,570.309z"/>
	<path fill="#19171C" d="M248.353,507.273c-3.394,0-6.191-2.804-6.191-6.275c0-3.39,2.796-6.194,6.191-6.194
		c3.475,0,6.272,2.804,6.272,6.194C254.625,504.469,251.828,507.273,248.353,507.273z M303.135,496.072v9.839H260.48v-9.839H303.135
		z"/>
	<path fill="#19171C" d="M281.763,469.764c-13.145,0-22.387-9.577-22.387-22.468c0-6.7,2.457-12.555,6.785-16.539l6.615,7.128
		c-2.546,2.029-4.158,5.338-4.158,9.411c0,7.209,5.342,12.208,13.145,12.208c7.803,0,13.145-4.918,13.145-12.381
		c0-3.811-1.439-7.12-4.578-9.585l6.615-7.12c4.663,3.984,7.294,9.924,7.294,16.875
		C304.242,460.268,294.993,469.764,281.763,469.764z"/>
	<path fill="#19171C" d="M298.557,369.046l-7.463-3.564c2.8-3.39,4.578-10.26,4.578-15.945c0-4.15-1.015-8.736-4.918-8.736
		c-3.14,0-3.9,3.9-4.922,9.5c-1.863,10.518-4.069,16.875-12.551,16.875c-10.769,0-13.909-9.924-13.909-18.483
		c0-6.449,1.863-12.47,4.748-16.709l7.548,3.645c-2.287,3.224-3.73,7.976-3.73,13.149c0,5.512,1.693,8.223,4.833,8.223
		c2.372,0,3.136-1.609,4.239-7.803c1.952-10.171,3.734-18.402,13.056-18.402c9.161,0,14.248,7.976,14.248,19.17
		C304.323,356.329,302.117,364.552,298.557,369.046z"/>
	<path fill="#19171C" d="M300.084,273.784c2.287,2.542,4.158,6.526,4.158,12.547c0,10.433-5.516,16.2-16.115,16.2h-18.742v8.316
		h-8.906v-8.316h-12.806v-9.924h12.806v-16.2h8.906v16.2h18.063c5.088,0,7.46-2.376,7.46-7.035c0-2.376-0.675-5.006-2.881-7.548
		L300.084,273.784z"/>
	<path fill="#19171C" d="M277.27,212.948h25.866v8.736l-6.106,0.594c4.748,3.39,7.209,9.411,7.209,15.004
		c0,7.637-4.667,14.931-13.484,14.931c-9.755,0-13.569-8.906-13.569-17.214c0-3.645,0.509-8.142,1.693-12.215h-1.358
		c-6.191,0-9.242,3.391-9.242,10.005c0,4.331,1.358,9.079,4.239,12.89l-7.209,3.9c-3.39-4.412-5.936-10.939-5.936-18.568
		C259.376,219.308,265.313,212.948,277.27,212.948z M285.751,222.78c-1.018,3.479-1.527,7.209-1.527,10.433
		c0,4.999,1.693,8.902,6.017,8.902c3.649,0,5.6-2.878,5.6-7.209C295.845,228.974,291.942,222.78,285.751,222.78z"/>
	<path fill="#19171C" d="M300.084,153.13c2.287,2.542,4.158,6.526,4.158,12.547c0,10.433-5.516,16.2-16.115,16.2h-18.742v8.312
		h-8.906v-8.312h-12.806v-9.924h12.806v-16.2h8.906v16.2h18.063c5.088,0,7.46-2.376,7.46-7.035c0-2.376-0.675-5.006-2.881-7.548
		L300.084,153.13z"/>
	<path fill="#19171C" d="M295.502,110.094c0-4.324-1.609-8.308-4.494-11.193l6.53-6.36c4.239,4.324,6.7,10.433,6.7,17.299
		c0,13.149-9.076,22.896-22.645,22.896c-12.975,0-22.217-8.983-22.217-22.213c0-13.824,9.836-20.524,19.93-20.524
		c1.358,0,4.328,0.247,6.106,0.594v31.883C291.772,121.206,295.502,116.712,295.502,110.094z M277.864,122.475V99.834
		c-5.512,0.255-9.666,3.984-9.666,10.854C268.194,116.967,271.927,121.206,277.864,122.475z"/>
</g>
<g>
	<path fill="#19171C" d="M348.661,552.814c0,1.269,0.243,2.203,0.727,2.793c0.483,0.587,1.125,0.885,1.926,0.885
		c0.778,0,1.347-0.28,1.697-0.834c0.35-0.553,0.62-1.251,0.815-2.084c0.188-0.834,0.365-1.741,0.524-2.708
		c0.166-0.963,0.443-1.867,0.815-2.704c0.38-0.834,0.933-1.535,1.664-2.084c0.73-0.553,1.752-0.834,3.073-0.834
		c0.683,0,1.361,0.118,2.018,0.354c0.664,0.236,1.243,0.624,1.749,1.166c0.513,0.542,0.919,1.243,1.221,2.103
		c0.303,0.86,0.461,1.904,0.461,3.129c0,1.483-0.229,2.881-0.675,4.191c-0.443,1.306-1.103,2.453-1.974,3.446l-2.051-1.376
		c0.73-0.801,1.299-1.734,1.712-2.793c0.413-1.063,0.62-2.217,0.62-3.468c0-1.461-0.284-2.527-0.849-3.202
		c-0.564-0.671-1.313-1.004-2.232-1.004c-0.889,0-1.561,0.277-1.996,0.83c-0.435,0.557-0.767,1.251-0.989,2.084
		c-0.229,0.837-0.406,1.741-0.553,2.708c-0.137,0.967-0.38,1.867-0.727,2.704c-0.339,0.834-0.834,1.535-1.483,2.084
		c-0.649,0.557-1.583,0.834-2.811,0.834c-0.587,0-1.181-0.107-1.782-0.317c-0.601-0.214-1.147-0.561-1.631-1.044
		s-0.871-1.122-1.166-1.911c-0.295-0.789-0.443-1.775-0.443-2.951c0-1.347,0.159-2.583,0.476-3.715
		c0.317-1.129,0.719-2.107,1.188-2.933l2.121,0.956c-0.402,0.826-0.745,1.719-1.029,2.686
		C348.805,550.774,348.661,551.777,348.661,552.814z"/>
	<path fill="#19171C" d="M349.193,528.667v3.711h-2.369v-3.711l-5.302-0.214v-2.335h5.302v-5.409h2.369v5.409h10.607
		c1.055,0,1.852-0.21,2.369-0.635c0.517-0.424,0.782-1.133,0.782-2.121c0-0.402-0.055-0.837-0.166-1.31
		c-0.103-0.472-0.214-0.874-0.332-1.203h2.369c0.35,0.919,0.531,1.918,0.531,3.003c0,0.731-0.103,1.391-0.303,1.981
		c-0.199,0.587-0.516,1.096-0.952,1.52c-0.435,0.424-1.022,0.749-1.752,0.97c-0.727,0.225-1.623,0.339-2.686,0.339h-10.467V528.667z
		"/>
	<path fill="#19171C" d="M347.562,493.091v-2.859l21.213,9.898c0.62,0.291,1.166,0.649,1.631,1.077
		c0.461,0.428,0.849,0.897,1.155,1.409c0.303,0.513,0.531,1.059,0.683,1.638c0.151,0.576,0.229,1.158,0.229,1.752
		c0,0.358-0.026,0.73-0.089,1.114c-0.063,0.38-0.151,0.764-0.284,1.144l-2.195-0.38c0.048-0.236,0.089-0.457,0.118-0.671
		c0.026-0.218,0.041-0.454,0.041-0.708c0-0.413-0.041-0.823-0.137-1.217c-0.089-0.398-0.247-0.778-0.469-1.147
		c-0.221-0.365-0.524-0.716-0.904-1.044c-0.373-0.332-0.849-0.638-1.424-0.93l-2.188-1.096l-17.373,7.851v-3.014l14.322-6.287
		L347.562,493.091z"/>
	<path fill="#19171C" d="M339.043,476.597v-2.542h25.81v2.542H339.043z"/>
	<path fill="#19171C" d="M362.769,442.441c0.849,0.974,1.49,2.066,1.926,3.28c0.435,1.214,0.657,2.671,0.657,4.379
		c0,1.299-0.221,2.479-0.657,3.542c-0.435,1.063-1.063,1.966-1.893,2.708c-0.823,0.745-1.823,1.317-3.003,1.719
		c-1.181,0.402-2.501,0.601-3.962,0.601c-1.409,0-2.701-0.199-3.866-0.601c-1.166-0.402-2.169-0.967-3.003-1.697
		c-0.841-0.73-1.483-1.616-1.948-2.638c-0.461-1.029-0.69-2.18-0.69-3.461c0-1.037,0.151-2.044,0.461-3.01
		c0.303-0.967,0.793-1.823,1.465-2.568c0.671-0.745,1.535-1.339,2.583-1.789s2.313-0.671,3.796-0.671
		c0.31,0,0.616,0.007,0.919,0.033c0.31,0.022,0.642,0.055,0.996,0.103v13.754c2.099-0.048,3.693-0.635,4.792-1.752
		c1.092-1.118,1.642-2.549,1.642-4.294c0-1.369-0.192-2.549-0.564-3.549c-0.38-1-0.919-1.907-1.631-2.708L362.769,442.441z
		 M354.284,444.776c-0.753,0-1.472,0.118-2.155,0.35c-0.683,0.232-1.277,0.579-1.789,1.044c-0.505,0.457-0.904,1.029-1.203,1.704
		c-0.291,0.682-0.443,1.483-0.443,2.394c0,1.553,0.498,2.83,1.483,3.826c0.996,1,2.361,1.631,4.103,1.885v-11.204H354.284z"/>
	<path fill="#19171C" d="M349.193,404.611v3.715h-2.369v-3.715l-5.302-0.207v-2.335h5.302v-5.412h2.369v5.412h10.607
		c1.055,0,1.852-0.214,2.369-0.635c0.517-0.428,0.782-1.133,0.782-2.125c0-0.402-0.055-0.834-0.166-1.306
		c-0.103-0.469-0.214-0.871-0.332-1.203h2.369c0.35,0.919,0.531,1.918,0.531,3.003c0,0.73-0.103,1.387-0.303,1.981
		c-0.199,0.587-0.516,1.092-0.952,1.52c-0.435,0.421-1.022,0.745-1.752,0.974c-0.727,0.221-1.623,0.332-2.686,0.332L349.193,404.611
		L349.193,404.611z"/>
	<path fill="#19171C" d="M349.864,380.394c-1.037-0.469-1.878-1.111-2.527-1.926s-0.974-1.963-0.974-3.446
		c0-0.35,0.033-0.738,0.089-1.147c0.063-0.413,0.144-0.738,0.262-0.974h2.369c-0.118,0.373-0.192,0.738-0.229,1.077
		c-0.033,0.347-0.048,0.664-0.048,0.974c0,1.085,0.255,1.981,0.775,2.701c0.516,0.727,1.195,1.291,2.018,1.719
		c0.83,0.421,1.775,0.727,2.844,0.896c1.077,0.181,2.155,0.269,3.239,0.269h7.176v2.542h-18.03v-2.542h3.04v-0.144H349.864z"/>
	<path fill="#19171C" d="M346.326,352.64c0-1.015,0.118-1.966,0.35-2.867c0.236-0.889,0.649-1.671,1.243-2.335
		c0.587-0.657,1.372-1.173,2.369-1.553c0.989-0.373,2.225-0.564,3.708-0.564h10.854v2.549h-2.402v0.103
		c0.616,0.476,1.103,0.996,1.483,1.553c0.38,0.564,0.671,1.147,0.885,1.734c0.214,0.594,0.35,1.173,0.421,1.752
		c0.077,0.572,0.111,1.11,0.111,1.609c0,0.775-0.118,1.52-0.358,2.225c-0.236,0.712-0.587,1.339-1.063,1.893
		c-0.469,0.553-1.07,0.996-1.808,1.324c-0.73,0.332-1.583,0.498-2.549,0.498c-1.276,0-2.328-0.236-3.154-0.705
		c-0.83-0.476-1.49-1.092-1.989-1.856c-0.498-0.767-0.834-1.623-1.029-2.56c-0.188-0.944-0.284-1.893-0.284-2.83
		c0-0.635,0.022-1.361,0.055-2.177c0.033-0.815,0.111-1.664,0.229-2.56c-0.911,0.022-1.664,0.159-2.265,0.406
		c-0.594,0.247-1.07,0.594-1.417,1.044c-0.35,0.45-0.601,0.974-0.738,1.575c-0.137,0.601-0.214,1.265-0.214,1.996
		c0,1.037,0.137,2.044,0.406,3.025c0.277,0.974,0.62,1.878,1.044,2.701l-2.121,0.959c-0.498-0.83-0.911-1.837-1.258-3.025
		C346.499,355.355,346.326,354.056,346.326,352.64z M355.664,347.869c-0.096,0.616-0.166,1.332-0.214,2.147
		c-0.048,0.815-0.07,1.623-0.07,2.431c0,0.616,0.055,1.251,0.173,1.911c0.125,0.664,0.339,1.265,0.657,1.808
		c0.317,0.546,0.753,0.989,1.291,1.332c0.546,0.339,1.236,0.513,2.084,0.513c0.635,0,1.166-0.103,1.594-0.317
		c0.421-0.214,0.76-0.498,1.022-0.849c0.262-0.358,0.443-0.753,0.546-1.188c0.111-0.443,0.159-0.896,0.159-1.369
		c0-0.778-0.125-1.553-0.365-2.328c-0.247-0.767-0.616-1.45-1.099-2.059c-0.483-0.601-1.092-1.092-1.823-1.472
		c-0.73-0.38-1.586-0.564-2.583-0.564h-1.372V347.869z"/>
	<path fill="#19171C" d="M339.043,317.466v-2.542h25.81v2.542h-2.188v0.144c0.443,0.38,0.834,0.767,1.166,1.166
		c0.325,0.402,0.601,0.849,0.83,1.339c0.221,0.498,0.395,1.048,0.513,1.664c0.118,0.616,0.181,1.313,0.181,2.084
		c0,1.063-0.221,2.077-0.657,3.058c-0.435,0.981-1.063,1.837-1.87,2.582c-0.815,0.738-1.808,1.332-2.988,1.767
		s-2.512,0.657-3.999,0.657c-1.435,0-2.741-0.207-3.922-0.62c-1.181-0.413-2.18-0.989-3.003-1.712
		c-0.83-0.73-1.465-1.586-1.911-2.568c-0.443-0.974-0.671-2.029-0.671-3.162c0-0.871,0.089-1.638,0.269-2.298
		c0.173-0.657,0.395-1.236,0.649-1.727c0.262-0.498,0.561-0.926,0.904-1.291c0.339-0.365,0.664-0.675,0.974-0.941v-0.144H339.043z
		 M362.983,323.354c0-0.878-0.173-1.686-0.516-2.431c-0.339-0.745-0.823-1.387-1.45-1.933c-0.62-0.539-1.372-0.959-2.258-1.258
		c-0.885-0.295-1.856-0.443-2.922-0.443c-1.055,0-2.022,0.137-2.892,0.428c-0.878,0.284-1.631,0.69-2.265,1.221
		c-0.635,0.531-1.125,1.166-1.472,1.911c-0.339,0.745-0.513,1.583-0.513,2.501s0.173,1.749,0.513,2.479
		c0.347,0.738,0.834,1.369,1.472,1.9c0.635,0.531,1.387,0.941,2.265,1.221c0.871,0.284,1.837,0.428,2.892,0.428
		c1.063,0,2.036-0.144,2.922-0.443c0.885-0.295,1.638-0.712,2.258-1.243c0.627-0.531,1.11-1.166,1.45-1.911
		C362.81,325.04,362.983,324.232,362.983,323.354z"/>
	<path fill="#19171C" d="M362.769,283.808c0.849,0.974,1.49,2.066,1.926,3.28c0.435,1.214,0.657,2.671,0.657,4.379
		c0,1.299-0.221,2.479-0.657,3.542c-0.435,1.063-1.063,1.966-1.893,2.708c-0.823,0.745-1.823,1.317-3.003,1.719
		s-2.501,0.601-3.962,0.601c-1.409,0-2.701-0.199-3.866-0.601c-1.166-0.402-2.169-0.967-3.003-1.697
		c-0.841-0.73-1.483-1.616-1.948-2.638c-0.461-1.029-0.69-2.18-0.69-3.461c0-1.037,0.151-2.044,0.461-3.01
		c0.303-0.967,0.793-1.823,1.465-2.568c0.671-0.745,1.535-1.339,2.583-1.789c1.048-0.45,2.313-0.671,3.796-0.671
		c0.31,0,0.616,0.007,0.919,0.033c0.31,0.022,0.642,0.055,0.996,0.103v13.754c2.099-0.048,3.693-0.635,4.792-1.752
		c1.092-1.118,1.642-2.549,1.642-4.294c0-1.369-0.192-2.549-0.564-3.549c-0.38-1-0.919-1.907-1.631-2.708L362.769,283.808z
		 M354.284,286.144c-0.753,0-1.472,0.118-2.155,0.35c-0.683,0.236-1.277,0.579-1.789,1.044c-0.505,0.457-0.904,1.029-1.203,1.704
		c-0.291,0.682-0.443,1.483-0.443,2.394c0,1.553,0.498,2.83,1.483,3.826c0.996,1,2.361,1.631,4.103,1.885v-11.204H354.284z"/>
	<path fill="#19171C" d="M349.864,266.553c-1.037-0.469-1.878-1.111-2.527-1.926s-0.974-1.963-0.974-3.446
		c0-0.35,0.033-0.738,0.089-1.147c0.063-0.413,0.144-0.738,0.262-0.974h2.369c-0.118,0.373-0.192,0.738-0.229,1.077
		c-0.033,0.347-0.048,0.664-0.048,0.974c0,1.085,0.255,1.981,0.775,2.701c0.516,0.727,1.195,1.291,2.018,1.719
		c0.83,0.421,1.775,0.727,2.844,0.896c1.077,0.181,2.155,0.269,3.239,0.269h7.176v2.542h-18.03v-2.542h3.04v-0.144H349.864z"/>
	<path fill="#19171C" d="M348.661,239.935c0,1.269,0.243,2.203,0.727,2.789c0.483,0.594,1.125,0.885,1.926,0.885
		c0.778,0,1.347-0.277,1.697-0.83c0.35-0.553,0.62-1.251,0.815-2.084c0.188-0.834,0.365-1.741,0.524-2.708
		c0.166-0.967,0.443-1.863,0.815-2.701c0.38-0.841,0.933-1.535,1.664-2.092c0.73-0.553,1.752-0.83,3.073-0.83
		c0.683,0,1.361,0.118,2.018,0.35c0.664,0.236,1.243,0.627,1.749,1.166c0.513,0.546,0.919,1.243,1.221,2.107
		s0.461,1.907,0.461,3.129c0,1.483-0.229,2.878-0.675,4.191c-0.443,1.306-1.103,2.457-1.974,3.446l-2.051-1.38
		c0.73-0.801,1.299-1.734,1.712-2.789c0.413-1.063,0.62-2.217,0.62-3.468c0-1.465-0.284-2.527-0.849-3.199
		c-0.564-0.675-1.313-1.007-2.232-1.007c-0.889,0-1.561,0.277-1.996,0.83c-0.435,0.553-0.767,1.251-0.989,2.084
		c-0.229,0.834-0.406,1.741-0.553,2.708c-0.137,0.967-0.38,1.863-0.727,2.708c-0.339,0.834-0.834,1.527-1.483,2.084
		c-0.649,0.553-1.583,0.83-2.811,0.83c-0.587,0-1.181-0.103-1.782-0.317s-1.147-0.561-1.631-1.044
		c-0.483-0.483-0.871-1.118-1.166-1.911c-0.295-0.786-0.443-1.767-0.443-2.948c0-1.347,0.159-2.583,0.476-3.715
		c0.317-1.133,0.719-2.107,1.188-2.933l2.121,0.952c-0.402,0.83-0.745,1.727-1.029,2.693
		C348.805,237.899,348.661,238.898,348.661,239.935z"/>
</g>
<g>
	<path fill="#19171C" d="M279.933,406.581c3.767,0,6.851-3.084,6.851-6.851c0-3.767-3.084-6.851-6.851-6.851
		s-6.851,3.084-6.851,6.851C273.082,403.5,276.166,406.581,279.933,406.581z"/>
</g>
</svg>
