<?xml version="1.0" encoding="utf-8"?>
<!-- Generator: Adobe Illustrator 17.0.0, SVG Export Plug-In . SVG Version: 6.00 Build 0)  -->
<!DOCTYPE svg PUBLIC "-//W3C//DTD SVG 1.1//EN" "http://www.w3.org/Graphics/SVG/1.1/DTD/svg11.dtd">
<svg version="1.1" id="Layer_1" xmlns="http://www.w3.org/2000/svg" xmlns:xlink="http://www.w3.org/1999/xlink" x="0px" y="0px"
	 width="612.003px" height="132.942px" viewBox="0 329.53 612.003 132.942" enable-background="new 0 329.53 612.003 132.942"
	 xml:space="preserve">
<g>
	<path fill="#FFFFFF" d="M44.264,371.68c0,13.315-9.411,22.56-20.859,22.56c-6.106,0-11.112-2.63-14.075-7.039l-0.513,5.932H0
		V329.53h9.924v25.357c2.963-3.479,7.545-5.512,13.141-5.512C34.853,349.375,44.264,358.531,44.264,371.68z M34.089,371.761
		c0-7.803-5.003-13.145-12.466-13.145c-7.46,0-12.551,5.257-12.551,13.145c0,8.057,5.172,13.145,12.551,13.145
		C29.086,384.906,34.089,379.653,34.089,371.761z"/>
	<path fill="#FFFFFF" d="M106.971,367.268v25.866h-8.733l-0.594-6.106c-3.394,4.748-9.415,7.209-15.012,7.209
		c-7.629,0-14.927-4.667-14.927-13.484c0-9.755,8.906-13.569,17.218-13.569c3.645,0,8.142,0.509,12.212,1.693v-1.358
		c0-6.191-3.394-9.242-10.009-9.242c-4.328,0-9.072,1.358-12.887,4.239l-3.9-7.209c4.409-3.39,10.939-5.936,18.572-5.936
		C100.615,349.375,106.971,355.311,106.971,367.268z M97.139,375.749c-3.479-1.018-7.209-1.527-10.433-1.527
		c-5.003,0-8.906,1.693-8.906,6.017c0,3.649,2.881,5.6,7.209,5.6C90.945,385.843,97.139,381.94,97.139,375.749z"/>
	<path fill="#FFFFFF" d="M131.693,388.555l3.564-7.463c3.39,2.8,10.26,4.578,15.945,4.578c4.15,0,8.729-1.015,8.729-4.918
		c0-3.14-3.896-3.9-9.496-4.922c-10.518-1.863-16.875-4.069-16.875-12.551c0-10.769,9.924-13.909,18.483-13.909
		c6.449,0,12.47,1.863,16.709,4.748l-3.645,7.548c-3.224-2.287-7.976-3.73-13.149-3.73c-5.512,0-8.223,1.693-8.223,4.833
		c0,2.372,1.609,3.136,7.803,4.239c10.171,1.952,18.402,3.734,18.402,13.056c0,9.161-7.976,14.248-19.17,14.248
		C144.41,394.321,136.187,392.115,131.693,388.555z"/>
	<path fill="#FFFFFF" d="M194.729,338.351c0-3.394,2.804-6.191,6.276-6.191c3.39,0,6.194,2.797,6.194,6.191
		c0,3.475-2.804,6.272-6.194,6.272C197.533,344.623,194.729,341.826,194.729,338.351z M205.93,393.133h-9.839v-42.656h9.839V393.133
		z"/>
	<path fill="#FFFFFF" d="M232.238,371.761c0-13.145,9.577-22.387,22.468-22.387c6.7,0,12.555,2.457,16.539,6.785l-7.128,6.615
		c-2.029-2.546-5.338-4.158-9.411-4.158c-7.209,0-12.208,5.342-12.208,13.145c0,7.803,4.918,13.145,12.381,13.145
		c3.811,0,7.12-1.439,9.585-4.578l7.12,6.615c-3.984,4.663-9.924,7.294-16.875,7.294
		C241.734,394.24,232.238,384.991,232.238,371.761z"/>
	<path fill="#FFFFFF" d="M332.956,388.555l3.564-7.463c3.39,2.8,10.26,4.578,15.945,4.578c4.15,0,8.736-1.015,8.736-4.918
		c0-3.14-3.9-3.9-9.5-4.922c-10.518-1.863-16.875-4.069-16.875-12.551c0-10.769,9.924-13.909,18.483-13.909
		c6.449,0,12.47,1.863,16.709,4.748l-3.645,7.548c-3.224-2.287-7.976-3.73-13.149-3.73c-5.512,0-8.223,1.693-8.223,4.833
		c0,2.372,1.609,3.136,7.803,4.239c10.171,1.952,18.402,3.734,18.402,13.056c0,9.161-7.976,14.248-19.17,14.248
		C345.673,394.321,337.449,392.115,332.956,388.555z"/>
	<path fill="#FFFFFF" d="M428.217,390.082c-2.542,2.287-6.526,4.158-12.547,4.158c-10.433,0-16.2-5.516-16.2-16.115v-18.742h-8.316
		v-8.906h8.316v-12.806h9.924v12.806h16.2v8.906h-16.2v18.063c0,5.088,2.376,7.46,7.035,7.46c2.376,0,5.006-0.675,7.548-2.881
		L428.217,390.082z"/>
	<path fill="#FFFFFF" d="M489.054,367.268v25.866h-8.736l-0.594-6.106c-3.39,4.748-9.411,7.209-15.004,7.209
		c-7.637,0-14.931-4.667-14.931-13.484c0-9.755,8.906-13.569,17.214-13.569c3.645,0,8.142,0.509,12.215,1.693v-1.358
		c0-6.191-3.39-9.242-10.005-9.242c-4.331,0-9.079,1.358-12.89,4.239l-3.9-7.209c4.412-3.39,10.939-5.936,18.568-5.936
		C482.694,349.375,489.054,355.311,489.054,367.268z M479.222,375.749c-3.479-1.018-7.209-1.527-10.433-1.527
		c-4.999,0-8.902,1.693-8.902,6.017c0,3.649,2.878,5.6,7.209,5.6C473.028,385.843,479.222,381.94,479.222,375.749z"/>
	<path fill="#FFFFFF" d="M548.872,390.082c-2.542,2.287-6.526,4.158-12.547,4.158c-10.433,0-16.2-5.516-16.2-16.115v-18.742h-8.312
		v-8.906h8.312v-12.806h9.924v12.806h16.2v8.906h-16.2v18.063c0,5.088,2.376,7.46,7.036,7.46c2.376,0,5.006-0.675,7.548-2.881
		L548.872,390.082z"/>
	<path fill="#FFFFFF" d="M591.908,385.5c4.324,0,8.308-1.609,11.193-4.494l6.36,6.53c-4.324,4.239-10.433,6.7-17.299,6.7
		c-13.149,0-22.896-9.076-22.896-22.645c0-12.975,8.983-22.217,22.213-22.217c13.824,0,20.524,9.836,20.524,19.93
		c0,1.358-0.247,4.328-0.594,6.106h-31.883C580.796,381.77,585.289,385.5,591.908,385.5z M579.527,367.862h22.641
		c-0.255-5.512-3.984-9.666-10.854-9.666C585.035,358.192,580.796,361.926,579.527,367.862z"/>
</g>
<g>
	<path fill="#FFFFFF" d="M149.188,438.659c-1.269,0-2.203,0.243-2.793,0.727c-0.587,0.483-0.885,1.125-0.885,1.926
		c0,0.778,0.28,1.347,0.834,1.697c0.553,0.35,1.251,0.62,2.084,0.815c0.834,0.188,1.741,0.365,2.708,0.524
		c0.963,0.166,1.867,0.443,2.704,0.815c0.834,0.38,1.535,0.933,2.084,1.664c0.553,0.73,0.834,1.752,0.834,3.073
		c0,0.683-0.118,1.361-0.354,2.018c-0.236,0.664-0.623,1.243-1.166,1.749c-0.542,0.513-1.243,0.919-2.103,1.221
		c-0.86,0.303-1.904,0.461-3.129,0.461c-1.483,0-2.881-0.229-4.191-0.675c-1.306-0.443-2.453-1.103-3.446-1.974l1.376-2.051
		c0.801,0.73,1.734,1.299,2.793,1.712c1.063,0.413,2.217,0.62,3.468,0.62c1.461,0,2.527-0.284,3.202-0.849
		c0.671-0.564,1.003-1.313,1.003-2.232c0-0.889-0.277-1.561-0.83-1.996c-0.557-0.435-1.251-0.767-2.084-0.989
		c-0.837-0.229-1.741-0.406-2.708-0.553c-0.967-0.137-1.867-0.38-2.704-0.727c-0.834-0.339-1.535-0.834-2.084-1.483
		c-0.557-0.649-0.834-1.583-0.834-2.811c0-0.587,0.107-1.181,0.317-1.782c0.214-0.601,0.561-1.147,1.044-1.631
		c0.483-0.483,1.122-0.871,1.911-1.166c0.79-0.295,1.775-0.443,2.951-0.443c1.347,0,2.583,0.159,3.715,0.476
		c1.129,0.317,2.107,0.719,2.933,1.188l-0.956,2.121c-0.826-0.402-1.719-0.745-2.686-1.029
		C151.228,438.803,150.225,438.659,149.188,438.659z"/>
	<path fill="#FFFFFF" d="M173.335,439.191h-3.711v-2.369h3.711l0.214-5.302h2.335v5.302h5.409v2.369h-5.409v10.607
		c0,1.055,0.21,1.852,0.635,2.369c0.424,0.517,1.133,0.782,2.121,0.782c0.402,0,0.837-0.055,1.31-0.166
		c0.472-0.103,0.874-0.214,1.203-0.332v2.369c-0.919,0.35-1.918,0.531-3.003,0.531c-0.73,0-1.391-0.103-1.981-0.303
		c-0.587-0.199-1.096-0.516-1.52-0.952c-0.424-0.435-0.749-1.022-0.97-1.752c-0.225-0.727-0.339-1.623-0.339-2.686v-10.467
		L173.335,439.191L173.335,439.191z"/>
	<path fill="#FFFFFF" d="M208.91,437.56h2.859l-9.898,21.214c-0.291,0.62-0.649,1.166-1.077,1.631
		c-0.428,0.461-0.896,0.849-1.409,1.155c-0.513,0.303-1.059,0.531-1.638,0.683c-0.576,0.151-1.158,0.229-1.752,0.229
		c-0.358,0-0.73-0.026-1.114-0.089c-0.38-0.063-0.764-0.151-1.144-0.284l0.38-2.195c0.236,0.048,0.457,0.089,0.671,0.118
		c0.218,0.026,0.454,0.041,0.708,0.041c0.413,0,0.823-0.041,1.217-0.137c0.398-0.089,0.778-0.247,1.147-0.469
		c0.365-0.221,0.716-0.524,1.044-0.904c0.332-0.373,0.638-0.849,0.93-1.424l1.096-2.188l-7.851-17.373h3.014l6.287,14.322
		L208.91,437.56z"/>
	<path fill="#FFFFFF" d="M225.405,429.041h2.542v25.81h-2.542V429.041z"/>
	<path fill="#FFFFFF" d="M259.561,452.767c-0.974,0.849-2.066,1.49-3.28,1.926c-1.214,0.435-2.671,0.657-4.379,0.657
		c-1.299,0-2.479-0.221-3.542-0.657c-1.063-0.435-1.966-1.063-2.708-1.893c-0.745-0.823-1.317-1.823-1.719-3.003
		c-0.402-1.181-0.601-2.501-0.601-3.962c0-1.409,0.199-2.701,0.601-3.866c0.402-1.166,0.967-2.169,1.697-3.003
		c0.73-0.841,1.616-1.483,2.638-1.948c1.029-0.461,2.18-0.69,3.461-0.69c1.037,0,2.044,0.151,3.01,0.461
		c0.967,0.303,1.823,0.793,2.568,1.465c0.745,0.671,1.339,1.535,1.789,2.583s0.671,2.313,0.671,3.796
		c0,0.31-0.007,0.616-0.033,0.919c-0.022,0.31-0.055,0.642-0.103,0.996h-13.754c0.048,2.099,0.635,3.693,1.752,4.792
		c1.118,1.092,2.549,1.642,4.294,1.642c1.369,0,2.549-0.192,3.549-0.564c1-0.38,1.907-0.919,2.708-1.631L259.561,452.767z
		 M257.226,444.282c0-0.753-0.118-1.472-0.35-2.155s-0.579-1.277-1.044-1.789c-0.457-0.505-1.029-0.904-1.704-1.203
		c-0.683-0.291-1.483-0.443-2.394-0.443c-1.553,0-2.83,0.498-3.826,1.483c-1,0.996-1.631,2.361-1.885,4.103h11.204v0.004H257.226z"
		/>
	<path fill="#FFFFFF" d="M297.391,439.191h-3.715v-2.369h3.715l0.207-5.302h2.335v5.302h5.412v2.369h-5.412v10.607
		c0,1.055,0.214,1.852,0.635,2.369c0.428,0.517,1.133,0.782,2.125,0.782c0.402,0,0.834-0.055,1.306-0.166
		c0.469-0.103,0.871-0.214,1.203-0.332v2.369c-0.919,0.35-1.918,0.531-3.003,0.531c-0.73,0-1.387-0.103-1.981-0.303
		c-0.587-0.199-1.092-0.516-1.52-0.952c-0.421-0.435-0.745-1.022-0.974-1.752c-0.221-0.727-0.332-1.623-0.332-2.686L297.391,439.191
		L297.391,439.191z"/>
	<path fill="#FFFFFF" d="M321.608,439.862c0.469-1.037,1.11-1.878,1.926-2.527s1.963-0.974,3.446-0.974
		c0.35,0,0.738,0.033,1.147,0.089c0.413,0.063,0.738,0.144,0.974,0.262v2.369c-0.373-0.118-0.738-0.192-1.077-0.229
		c-0.347-0.033-0.664-0.048-0.974-0.048c-1.085,0-1.981,0.255-2.701,0.775c-0.727,0.516-1.291,1.195-1.719,2.018
		c-0.421,0.83-0.727,1.775-0.896,2.844c-0.181,1.077-0.269,2.155-0.269,3.239v7.176h-2.542v-18.03h2.542v3.04h0.144v-0.004H321.608z
		"/>
	<path fill="#FFFFFF" d="M349.362,436.324c1.015,0,1.966,0.118,2.867,0.35c0.889,0.236,1.671,0.649,2.335,1.243
		c0.657,0.587,1.173,1.372,1.553,2.369c0.373,0.989,0.564,2.225,0.564,3.708v10.854h-2.549v-2.402h-0.103
		c-0.476,0.616-0.996,1.103-1.553,1.483c-0.564,0.38-1.147,0.671-1.734,0.885c-0.594,0.214-1.173,0.35-1.752,0.421
		c-0.572,0.077-1.111,0.111-1.609,0.111c-0.775,0-1.52-0.118-2.225-0.358c-0.712-0.236-1.339-0.587-1.893-1.063
		c-0.553-0.469-0.996-1.07-1.324-1.808c-0.332-0.73-0.498-1.583-0.498-2.549c0-1.276,0.236-2.328,0.705-3.154
		c0.476-0.83,1.092-1.49,1.856-1.989c0.767-0.498,1.623-0.834,2.56-1.029c0.944-0.188,1.893-0.284,2.83-0.284
		c0.635,0,1.361,0.022,2.177,0.055c0.815,0.033,1.664,0.111,2.56,0.229c-0.022-0.911-0.159-1.664-0.406-2.265
		c-0.247-0.594-0.594-1.07-1.044-1.417c-0.45-0.35-0.974-0.601-1.575-0.738s-1.265-0.214-1.996-0.214
		c-1.037,0-2.044,0.137-3.025,0.406c-0.974,0.277-1.878,0.62-2.701,1.044l-0.959-2.121c0.83-0.498,1.837-0.911,3.025-1.258
		C346.647,436.497,347.946,436.324,349.362,436.324z M354.133,445.662c-0.616-0.096-1.332-0.166-2.147-0.214s-1.623-0.07-2.431-0.07
		c-0.616,0-1.251,0.055-1.911,0.173c-0.664,0.125-1.265,0.339-1.808,0.657c-0.546,0.317-0.989,0.753-1.332,1.291
		c-0.339,0.546-0.513,1.236-0.513,2.084c0,0.635,0.103,1.166,0.317,1.594c0.214,0.421,0.498,0.76,0.849,1.022
		c0.358,0.262,0.753,0.443,1.188,0.546c0.443,0.111,0.896,0.159,1.369,0.159c0.778,0,1.553-0.125,2.328-0.365
		c0.767-0.247,1.45-0.616,2.059-1.099c0.601-0.483,1.092-1.092,1.472-1.823c0.38-0.73,0.564-1.586,0.564-2.583v-1.372H354.133z"/>
	<path fill="#FFFFFF" d="M384.536,429.041h2.542v25.81h-2.542v-2.188h-0.144c-0.38,0.443-0.767,0.834-1.166,1.166
		c-0.402,0.325-0.849,0.601-1.339,0.83c-0.498,0.221-1.048,0.395-1.664,0.513s-1.313,0.181-2.084,0.181
		c-1.063,0-2.077-0.221-3.058-0.657c-0.981-0.435-1.837-1.063-2.582-1.87c-0.738-0.815-1.332-1.808-1.767-2.988
		c-0.435-1.181-0.657-2.512-0.657-3.999c0-1.435,0.207-2.741,0.62-3.922s0.989-2.18,1.712-3.003c0.73-0.83,1.586-1.465,2.568-1.911
		c0.974-0.443,2.029-0.671,3.162-0.671c0.871,0,1.638,0.089,2.298,0.269c0.657,0.173,1.236,0.395,1.727,0.649
		c0.498,0.262,0.926,0.561,1.291,0.904c0.365,0.339,0.675,0.664,0.941,0.974h0.144v-10.087H384.536z M378.648,452.981
		c0.878,0,1.686-0.173,2.431-0.516c0.745-0.339,1.387-0.823,1.933-1.45c0.539-0.62,0.959-1.372,1.258-2.258
		c0.295-0.885,0.443-1.856,0.443-2.922c0-1.055-0.137-2.022-0.428-2.892c-0.284-0.878-0.69-1.631-1.221-2.265
		c-0.531-0.635-1.166-1.125-1.911-1.472c-0.745-0.339-1.583-0.513-2.501-0.513s-1.749,0.173-2.479,0.513
		c-0.738,0.347-1.369,0.834-1.9,1.472c-0.531,0.635-0.941,1.387-1.221,2.265c-0.284,0.871-0.428,1.837-0.428,2.892
		c0,1.063,0.144,2.036,0.443,2.922c0.295,0.885,0.712,1.638,1.243,2.258c0.531,0.627,1.166,1.11,1.911,1.45
		C376.962,452.808,377.77,452.981,378.648,452.981z"/>
	<path fill="#FFFFFF" d="M418.194,452.767c-0.974,0.849-2.066,1.49-3.28,1.926c-1.214,0.435-2.671,0.657-4.379,0.657
		c-1.299,0-2.479-0.221-3.542-0.657c-1.063-0.435-1.966-1.063-2.708-1.893c-0.745-0.823-1.317-1.823-1.719-3.003
		c-0.402-1.181-0.601-2.501-0.601-3.962c0-1.409,0.199-2.701,0.601-3.866c0.402-1.166,0.967-2.169,1.697-3.003
		c0.73-0.841,1.616-1.483,2.638-1.948c1.029-0.461,2.18-0.69,3.461-0.69c1.037,0,2.044,0.151,3.01,0.461
		c0.967,0.303,1.823,0.793,2.568,1.465c0.745,0.671,1.339,1.535,1.789,2.583s0.671,2.313,0.671,3.796
		c0,0.31-0.007,0.616-0.033,0.919c-0.022,0.31-0.055,0.642-0.103,0.996H404.51c0.048,2.099,0.635,3.693,1.752,4.792
		c1.118,1.092,2.549,1.642,4.294,1.642c1.369,0,2.549-0.192,3.549-0.564c1-0.38,1.907-0.919,2.708-1.631L418.194,452.767z
		 M415.858,444.282c0-0.753-0.118-1.472-0.35-2.155c-0.236-0.683-0.579-1.277-1.044-1.789c-0.457-0.505-1.029-0.904-1.704-1.203
		c-0.682-0.291-1.483-0.443-2.394-0.443c-1.553,0-2.83,0.498-3.826,1.483c-1,0.996-1.631,2.361-1.885,4.103h11.204L415.858,444.282
		L415.858,444.282z"/>
	<path fill="#FFFFFF" d="M435.448,439.862c0.469-1.037,1.11-1.878,1.926-2.527s1.963-0.974,3.446-0.974
		c0.35,0,0.738,0.033,1.147,0.089c0.413,0.063,0.738,0.144,0.974,0.262v2.369c-0.373-0.118-0.738-0.192-1.077-0.229
		c-0.347-0.033-0.664-0.048-0.974-0.048c-1.085,0-1.981,0.255-2.701,0.775c-0.727,0.516-1.291,1.195-1.719,2.018
		c-0.421,0.83-0.727,1.775-0.896,2.844c-0.181,1.077-0.269,2.155-0.269,3.239v7.176h-2.542v-18.03h2.542v3.04h0.144v-0.004H435.448z
		"/>
	<path fill="#FFFFFF" d="M462.067,438.659c-1.269,0-2.203,0.243-2.789,0.727c-0.594,0.483-0.885,1.125-0.885,1.926
		c0,0.778,0.277,1.347,0.83,1.697c0.553,0.35,1.251,0.62,2.084,0.815c0.834,0.188,1.741,0.365,2.708,0.524
		c0.967,0.166,1.863,0.443,2.701,0.815c0.841,0.38,1.535,0.933,2.092,1.664c0.553,0.73,0.83,1.752,0.83,3.073
		c0,0.683-0.118,1.361-0.35,2.018c-0.236,0.664-0.627,1.243-1.166,1.749c-0.546,0.513-1.243,0.919-2.107,1.221
		c-0.863,0.303-1.907,0.461-3.129,0.461c-1.483,0-2.878-0.229-4.191-0.675c-1.306-0.443-2.457-1.103-3.446-1.974l1.38-2.051
		c0.801,0.73,1.734,1.299,2.789,1.712c1.063,0.413,2.217,0.62,3.468,0.62c1.465,0,2.527-0.284,3.199-0.849
		c0.675-0.564,1.007-1.313,1.007-2.232c0-0.889-0.277-1.561-0.83-1.996c-0.553-0.435-1.251-0.767-2.084-0.989
		c-0.834-0.229-1.741-0.406-2.708-0.553c-0.967-0.137-1.863-0.38-2.708-0.727c-0.834-0.339-1.527-0.834-2.084-1.483
		c-0.553-0.649-0.83-1.583-0.83-2.811c0-0.587,0.103-1.181,0.317-1.782s0.561-1.147,1.044-1.631
		c0.483-0.483,1.118-0.871,1.911-1.166c0.786-0.295,1.767-0.443,2.948-0.443c1.347,0,2.583,0.159,3.715,0.476
		c1.133,0.317,2.107,0.719,2.933,1.188l-0.952,2.121c-0.83-0.402-1.727-0.745-2.693-1.029
		C464.103,438.803,463.103,438.659,462.067,438.659z"/>
</g>
<g>
	<path fill="#FFFFFF" d="M295.421,369.931c0,3.767,3.084,6.851,6.851,6.851s6.851-3.084,6.851-6.851s-3.084-6.851-6.851-6.851
		C298.502,363.08,295.421,366.165,295.421,369.931z"/>
</g>
</svg>
