<?xml version="1.0" encoding="UTF-8" standalone="no"?>
<!DOCTYPE svg PUBLIC "-//W3C//DTD SVG 1.1//EN" "http://www.w3.org/Graphics/SVG/1.1/DTD/svg11.dtd">
<svg width="100%" height="100%" viewBox="0 0 28 122" version="1.1" xmlns="http://www.w3.org/2000/svg" xmlns:xlink="http://www.w3.org/1999/xlink" xml:space="preserve" xmlns:serif="http://www.serif.com/" style="fill-rule:evenodd;clip-rule:evenodd;stroke-linejoin:round;stroke-miterlimit:1.41421;">
    <g transform="matrix(1.79556e-17,-0.293238,0.304222,1.86282e-17,0.499997,122)">
        <path d="M0,16.694C0,16.03 0.225,15.498 0.675,15.099C1.125,14.7 1.683,14.5 2.35,14.5L56.15,14.5C56.75,14.5 57.283,14.683 57.75,15.048C58.217,15.413 58.482,15.962 58.55,16.694L58.55,29.107C58.55,29.706 58.342,30.279 57.925,30.827C57.508,31.376 56.916,31.65 56.151,31.65L38.9,31.65L38.9,86.398C38.9,86.999 38.683,87.541 38.252,88.025C37.818,88.509 37.254,88.751 36.557,88.751L21.894,88.751C21.329,88.751 20.796,88.526 20.298,88.075C19.799,87.625 19.55,87.066 19.55,86.398L19.55,31.65L2.35,31.65C1.683,31.65 1.125,31.435 0.675,31.003C0.225,30.571 0,29.938 0,29.107L0,16.694Z" style="fill:white;fill-rule:nonzero;"/>
        <path d="M70.749,16.8C70.749,16.1 70.932,15.542 71.299,15.125C71.665,14.708 72.215,14.5 72.948,14.5L105.249,14.5C108.682,14.5 111.898,15.142 114.898,16.425C117.898,17.709 120.514,19.45 122.749,21.65C124.981,23.85 126.74,26.425 128.023,29.375C129.306,32.325 129.948,35.467 129.948,38.8C129.948,41.068 129.639,43.225 129.023,45.275C128.406,47.325 127.548,49.242 126.448,51.025C125.348,52.809 124.04,54.425 122.523,55.875C121.006,57.325 119.348,58.567 117.548,59.6L130.398,83.8C130.631,84.267 130.931,84.818 131.298,85.45C131.664,86.083 131.848,86.634 131.848,87.1C131.848,87.634 131.673,88.042 131.323,88.325C130.973,88.608 130.499,88.75 129.898,88.75L112.749,88.75C112.182,88.75 111.674,88.583 111.224,88.25C110.774,87.917 110.482,87.467 110.349,86.9L98.199,64.05L90.099,64.05L90.099,86.6C90.099,88.034 89.331,88.75 87.799,88.75L72.948,88.75C72.281,88.75 71.749,88.575 71.348,88.225C70.947,87.875 70.748,87.333 70.748,86.6L70.748,16.8L70.749,16.8ZM109.898,39C109.898,38 109.714,37 109.348,36C108.981,35 108.464,34.083 107.798,33.25C107.131,32.417 106.33,31.717 105.398,31.15C104.464,30.584 103.431,30.217 102.298,30.05C101.364,29.984 100.489,29.925 99.673,29.875C98.856,29.825 97.964,29.8 96.998,29.8L90.098,29.8L90.098,48.15L99.298,48.15C99.898,48.15 100.431,48.134 100.898,48.1C101.365,48.067 101.881,48.017 102.448,47.95C103.615,47.817 104.665,47.475 105.598,46.925C106.531,46.375 107.315,45.693 107.948,44.875C108.581,44.059 109.065,43.142 109.398,42.125C109.731,41.108 109.898,40.067 109.898,39Z" style="fill:white;fill-rule:nonzero;"/>
        <path d="M140.997,16.8C140.997,16.1 141.187,15.542 141.57,15.125C141.953,14.708 142.493,14.5 143.191,14.5L192.796,14.5C193.529,14.5 194.097,14.716 194.496,15.148C194.896,15.58 195.097,16.161 195.097,16.893L195.097,29.257C195.097,29.823 194.897,30.362 194.496,30.878C194.097,31.394 193.513,31.65 192.746,31.65L160.347,31.65L160.347,44.05L185.347,44.05C185.98,44.05 186.504,44.2 186.921,44.5C187.338,44.8 187.546,45.3 187.546,46L187.546,56.8C187.546,57.267 187.362,57.717 186.996,58.15C186.629,58.584 186.097,58.8 185.396,58.8L160.346,58.8L160.346,71.6L193.946,71.6C195.446,71.6 196.196,72.365 196.196,73.893L196.196,86.457C196.196,86.79 196.062,87.088 195.796,87.354C195.663,88.285 194.98,88.75 193.746,88.75L143.19,88.75C142.525,88.75 141.993,88.575 141.594,88.225C141.195,87.875 140.995,87.333 140.995,86.6L140.995,16.8L140.997,16.8Z" style="fill:white;fill-rule:nonzero;"/>
        <path d="M208.696,16.7C208.696,16.1 208.879,15.583 209.246,15.15C209.612,14.717 210.163,14.5 210.896,14.5L227.246,14.5C227.713,14.5 228.196,14.617 228.696,14.85C229.196,15.083 229.629,15.483 229.996,16.05C234.229,22.884 238.429,29.617 242.597,36.25C246.763,42.884 250.98,49.617 255.246,56.45L255.246,16.4C255.379,15.8 255.646,15.334 256.046,15C256.446,14.667 256.913,14.5 257.446,14.5L271.696,14.5C272.396,14.5 272.979,14.692 273.446,15.075C273.913,15.458 274.146,16 274.146,16.7L274.146,86.8C274.146,87.467 273.946,87.959 273.545,88.275C273.146,88.592 272.596,88.75 271.896,88.75L255.946,88.75C255.512,88.75 255.129,88.6 254.796,88.3C254.463,88 254.112,87.6 253.746,87.1C249.312,79.767 244.929,72.517 240.597,65.35C236.263,58.183 231.863,50.933 227.397,43.6L227.397,86.55C227.397,87.284 227.23,87.834 226.897,88.2C226.563,88.567 225.963,88.75 225.097,88.75L210.897,88.75C210.129,88.75 209.572,88.542 209.222,88.125C208.871,87.708 208.697,87.2 208.697,86.6L208.697,16.7L208.696,16.7Z" style="fill:white;fill-rule:nonzero;"/>
        <path d="M354.745,51.7C354.745,55.233 354.296,58.592 353.395,61.775C352.495,64.959 351.211,67.925 349.545,70.675C347.877,73.425 345.886,75.917 343.569,78.15C341.252,80.384 338.685,82.284 335.869,83.85C333.053,85.417 330.011,86.625 326.744,87.475C323.477,88.325 320.095,88.75 316.595,88.75L291.945,88.75C291.345,88.75 290.811,88.617 290.345,88.35C289.877,88.083 289.645,87.517 289.645,86.65L289.645,16.8C289.645,16.1 289.836,15.534 290.22,15.1C290.603,14.667 291.178,14.45 291.945,14.45L316.595,14.45C320.095,14.45 323.47,14.884 326.72,15.75C329.97,16.617 333.002,17.85 335.82,19.45C338.636,21.05 341.212,22.967 343.546,25.2C345.878,27.433 347.87,29.933 349.521,32.7C351.171,35.467 352.454,38.45 353.371,41.65C354.287,44.85 354.745,48.2 354.745,51.7ZM308.995,32.4L308.995,70.85L313.195,70.85C313.962,70.85 314.712,70.825 315.445,70.775C316.178,70.725 316.912,70.667 317.645,70.6C320.145,70.4 322.478,69.792 324.645,68.775C326.811,67.759 328.703,66.425 330.32,64.775C331.936,63.125 333.203,61.184 334.12,58.95C335.037,56.717 335.495,54.283 335.495,51.65C335.495,48.85 334.971,46.275 333.921,43.925C332.87,41.575 331.445,39.542 329.646,37.825C327.847,36.108 325.738,34.775 323.321,33.825C320.904,32.875 318.329,32.4 315.596,32.4L308.995,32.4Z" style="fill:white;fill-rule:nonzero;"/>
        <path d="M365.695,3.85C365.695,2.45 365.995,1.458 366.594,0.875C367.195,0.292 368.128,0 369.396,0L380.996,0C382.162,0 383.103,0.292 383.821,0.875C384.537,1.458 384.896,2.45 384.896,3.85L384.896,13.6C384.896,14 384.803,14.433 384.621,14.9C384.437,15.367 384.179,15.817 383.846,16.25C383.513,16.684 383.104,17.042 382.621,17.325C382.138,17.608 381.596,17.75 380.996,17.75L369.396,17.75C366.928,17.75 365.696,16.367 365.696,13.6L365.696,3.85L365.695,3.85ZM365.695,29.15C365.695,28.084 365.995,27.167 366.594,26.4C367.195,25.634 368.127,25.25 369.395,25.25L380.844,25.25C381.244,25.25 381.677,25.342 382.145,25.525C382.611,25.709 383.044,25.975 383.445,26.325C383.844,26.675 384.186,27.083 384.469,27.55C384.752,28.017 384.895,28.55 384.895,29.15L384.895,84.9C384.895,86.167 384.544,87.125 383.844,87.775C383.145,88.425 382.145,88.75 380.844,88.75L369.395,88.75C366.927,88.75 365.695,87.467 365.695,84.9L365.695,29.15Z" style="fill:white;fill-rule:nonzero;"/>
        <path d="M396.845,3.85C396.845,2.45 397.145,1.458 397.744,0.875C398.345,0.292 399.277,0 400.545,0L412.145,0C413.311,0 414.252,0.292 414.97,0.875C415.686,1.458 416.045,2.45 416.045,3.85L416.045,13.6C416.045,14 415.952,14.433 415.77,14.9C415.586,15.367 415.328,15.817 414.995,16.25C414.662,16.684 414.253,17.042 413.77,17.325C413.287,17.608 412.745,17.75 412.145,17.75L400.545,17.75C398.077,17.75 396.845,16.367 396.845,13.6L396.845,3.85ZM396.845,29.15C396.845,28.084 397.145,27.167 397.744,26.4C398.345,25.634 399.277,25.25 400.545,25.25L411.994,25.25C412.394,25.25 412.827,25.342 413.295,25.525C413.761,25.709 414.194,25.975 414.595,26.325C414.994,26.675 415.336,27.083 415.619,27.55C415.902,28.017 416.045,28.55 416.045,29.15L416.045,84.9C416.045,86.167 415.694,87.125 414.994,87.775C414.295,88.425 413.295,88.75 411.994,88.75L400.545,88.75C398.077,88.75 396.845,87.467 396.845,84.9L396.845,29.15Z" style="fill:white;fill-rule:nonzero;"/>
    </g>
</svg>
