<?xml version="1.0" encoding="utf-8"?>
<!-- Generator: Adobe Illustrator 17.0.0, SVG Export Plug-In . SVG Version: 6.00 Build 0)  -->
<!DOCTYPE svg PUBLIC "-//W3C//DTD SVG 1.1//EN" "http://www.w3.org/Graphics/SVG/1.1/DTD/svg11.dtd">
<svg version="1.1" id="Layer_1" xmlns="http://www.w3.org/2000/svg" xmlns:xlink="http://www.w3.org/1999/xlink" x="0px" y="0px"
	 width="1080px" height="126px" viewBox="1.8 477 1080 126" enable-background="new 1.8 477 1080 126" xml:space="preserve">
<rect x="426.6" y="478.8" fill="#FFFFFF" width="23.4" height="122.4"/>
<rect x="917.1" y="478.8" fill="#FFFFFF" width="23.4" height="122.4"/>
<polygon fill="#FFFFFF" points="1.8,478.8 1.8,486.9 36.9,486.9 36.9,601.2 60.3,601.2 60.3,486.9 96.3,486.9 96.3,478.8 "/>
<polygon fill="#FFFFFF" points="213.3,535.5 150.3,535.5 150.3,478.8 126.9,478.8 126.9,601.2 150.3,601.2 150.3,544.5 213.3,544.5 
	213.3,601.2 235.8,601.2 235.8,478.8 213.3,478.8 "/>
<polygon fill="#FFFFFF" points="297.9,544.5 344.7,544.5 344.7,535.5 297.9,535.5 297.9,486.9 360,486.9 360,478.8 275.4,478.8 
	275.4,601.2 360,601.2 360,593.1 297.9,593.1 "/>
<path fill="#FFFFFF" d="M679.5,477c-37.8,0-63,27-63,63s25.2,63,63,63s63-27,63-63S717.3,477,679.5,477 M691.2,591.3
	c-1.8,0.9-6.3,1.8-11.7,1.8c-5.4,0-9.9-1.8-11.7-1.8c-12.6-4.5-26.1-18.9-26.1-51.3s13.5-45.9,27-51.3c1.8-0.9,6.3-1.8,11.7-1.8
	s9.9,1.8,11.7,1.8c12.6,4.5,26.1,18.9,26.1,51.3S703.8,585.9,691.2,591.3"/>
<path fill="#FFFFFF" d="M593.1,585.9c-10.8,10.8-27,17.1-45,17.1c-37.8,0-63.9-20.7-63.9-63c0-36,26.1-63,63.9-63
	c18,0,33.3,6.3,44.1,16.2l-7.2,14.4c-7.2-12.6-19.8-20.7-34.2-20.7c-25.2,0-42.3,22.5-42.3,53.1c0,36,19.8,53.1,42.3,53.1
	c16.2,0,29.7-6.3,38.7-14.4L593.1,585.9z"/>
<path fill="#FFFFFF" d="M1081.8,585.9c-10.8,10.8-27,17.1-45,17.1c-37.8,0-63.9-20.7-63.9-63c0-36,26.1-63,63.9-63
	c18,0,33.3,6.3,44.1,16.2l-7.2,14.4c-7.2-12.6-19.8-20.7-34.2-20.7c-25.2,0-42.3,22.5-42.3,53.1c0,36,19.8,53.1,42.3,53.1
	c16.2,0,29.7-6.3,38.7-14.4L1081.8,585.9z"/>
<polygon fill="#FFFFFF" points="875.7,478.8 875.7,601.2 861.3,601.2 780.3,507.6 780.3,507.6 780.3,601.2 770.4,601.2 770.4,478.8 
	787.5,478.8 865.8,572.4 866.7,572.4 866.7,478.8 "/>
</svg>
